<svg width="24" height="24" viewBox="0 0 24 24" fill="none" xmlns="http://www.w3.org/2000/svg">
<g id="bars-staggered 1" clip-path="url(#clip0_2125_535)">
<path id="Vector" d="M0 3.5C0 2.67 0.67 2 1.5 2H17.5C18.33 2 19 2.67 19 3.5C19 4.33 18.33 5 17.5 5H1.5C0.67 5 0 4.33 0 3.5ZM17.5 18H1.5C0.67 18 0 18.67 0 19.5C0 20.33 0.67 21 1.5 21H17.5C18.33 21 19 20.33 19 19.5C19 18.67 18.33 18 17.5 18ZM22.5 10H6.5C5.67 10 5 10.67 5 11.5C5 12.33 5.67 13 6.5 13H22.5C23.33 13 24 12.33 24 11.5C24 10.67 23.33 10 22.5 10Z" fill="#4F547B"/>
</g>
<defs>
<clipPath id="clip0_2125_535">
<rect width="24" height="24" fill="white"/>
</clipPath>
</defs>
</svg>
